# xmcd
#
# Track frame offsets: 
#        150
#        16530
#        38611
#        50420
#        65243
#        91352
#        109361
#        125619
#        141998
#        158262
#        176196
#        192891
#        211958
#
# Disc length: 3103 seconds
#
# Revision: 0
# Processed by: cddbd v1.5.2PL0 Copyright (c) Steve Scherf et al.
# Submitted via: ExactAudioCopy v0.95b4
#
DISCID=b20c1d0d
DTITLE=Deborah Allen - Hands On
DYEAR=2003
DGENRE=Country
TTITLE0=Hands On
TTITLE1=I Want You
TTITLE2=Anything Other Than Love
TTITLE3=I'd Rather Have You Back
TTITLE4=Tellin' You From the Heart
TTITLE5=Deeper Water
TTITLE6=Just Another Someone New
TTITLE7=Back to Basics
TTITLE8=Exception to the Rule
TTITLE9=Never Gonna Run Out of Love
TTITLE10=With All My Heart
TTITLE11=Woman in Love
TTITLE12=At the Feet of Jesus
EXTD=
EXTT0=
EXTT1=
EXTT2=
EXTT3=
EXTT4=
EXTT5=
EXTT6=
EXTT7=
EXTT8=
EXTT9=
EXTT10=
EXTT11=
EXTT12=
PLAYORDER=
